HIERARCHY
ROOT pelvis
{
  OFFSET 0 100 0
  CHANNELS 6 Xposition Yposition Zposition Zrotation Xrotation Yrotation
  JOINT pelvis_right_femur
  {
    OFFSET -10.78128 -3.44521 -0.5502486
    CHANNELS 3 Zrotation Xrotation Yrotation
    JOINT right_femur_tibia
    {
      OFFSET -0.8047443 -44.0398 -0.1307829
      CHANNELS 3 Zrotation Xrotation Yrotation
      JOINT right_tibia_foot
      {
        OFFSET 3.006224 -47.83518 -5
        CHANNELS 3 Zrotation Xrotation Yrotation
        End Site
        {
          OFFSET 0 -5 15
        }
      }
    }
  }
  JOINT pelvis_left_femur
  {
    OFFSET 10.78128 -3.44521 -0.5502486
    CHANNELS 3 Zrotation Xrotation Yrotation
    JOINT left_femur_tibia
    {
      OFFSET 0.8047443 -44.0398 -0.1307829
      CHANNELS 3 Zrotation Xrotation Yrotation
      JOINT left_tibia_foot
      {
        OFFSET -4.370144 -48.10324 -4.275266
        CHANNELS 3 Zrotation Xrotation Yrotation
        End Site
        {
          OFFSET 0 -5 15
        }
      }
    }
  }
  JOINT pelvis_spine1
  {
    OFFSET 0 6.468898 -3.129235
    CHANNELS 3 Zrotation Xrotation Yrotation
    JOINT spine1
    {
      OFFSET 0 23.15396 4.99043
      CHANNELS 3 Zrotation Xrotation Yrotation
      JOINT spine2
      {
        OFFSET 0 20.79997 -5.064912
        CHANNELS 3 Zrotation Xrotation Yrotation
        JOINT neck
        {
          OFFSET 0 14.38658 9.616178
          CHANNELS 3 Zrotation Xrotation Yrotation
          End Site
          {
            OFFSET 0 20 0
          }
        }
      }
      JOINT right_manubrium
      {
        OFFSET -5.722621 16.35077 3.967754
        CHANNELS 3 Zrotation Xrotation Yrotation
        JOINT right_clavicle
        {
          OFFSET -13.16364 1.694482 -4.693211
          CHANNELS 3 Zrotation Xrotation Yrotation
          JOINT right_humerus
          {
            OFFSET -28.5034 -0.3100689 -2.792744
            CHANNELS 3 Zrotation Xrotation Yrotation
            JOINT right_radius
            {
              OFFSET -25.15693 0.02248979 -1.271978
              CHANNELS 3 Zrotation Xrotation Yrotation
              End Site
              {
                OFFSET -15 0 0
              }
            }
          }
        }
      }
      JOINT left_manubrium
      {
        OFFSET 5.722621 16.35077 3.967754
        CHANNELS 3 Zrotation Xrotation Yrotation
        JOINT left_clavicle
        {
          OFFSET 13.16364 1.694482 -4.693211
          CHANNELS 3 Zrotation Xrotation Yrotation
          JOINT left_humerus
          {
            OFFSET 29.39168 -1.063119 -2.237045
            CHANNELS 3 Zrotation Xrotation Yrotation
            JOINT left_radius
            {
              OFFSET 24.59957 -0.9528479 0.9047498
              CHANNELS 3 Zrotation Xrotation Yrotation
              End Site
              {
                OFFSET 15 -0 -0
              }
            }
          }
        }
      }
    }
  }
}
MOTION
Frames: 21
Frame Time: 0.0416666666667
19.13952 104.0939 2779.367 -1.368504 -2.4189 -17.3594 3.936069 18.02046 1.154093 -0 10.33328 -0 -4.386213 -17.398 0.04060052 3.406279 -29.19516 -2.257536 -0 12.79902 -0 -5.353337 -5.848452 19.32609 -1.850915 -0.281501 9.146534 -0.8714999 9.079234 -3.531577 0.9007763 21.35311 6.440235 3.418646 -19.89797 6.163393 3.055417 -22.0321 11.85633 76.27569 35.45583 -3.086352 -0 0 22.68091 -29.30228 15.08143 17.69191 4.178027 -17.19957 -0.5721167 -92.92508 23.05498 27.80411 0 0 -13.7995 0.6815094 9.315724 14.55637
18.07424 102.9839 2786.215 -0.8569761 -2.717847 -17.88513 2.363995 19.78548 1.648441 -0 15.02107 -0 -3.590254 -14.26974 0.1611745 1.608203 -28.23277 -3.870267 -0 12.56814 -0 -4.876537 -6.386844 19.77714 -2.405874 -0.4784277 9.24753 -0.8388528 9.329542 -3.445955 0.9544417 21.43696 6.275982 3.409879 -19.80659 6.042197 3.177334 -22.17854 11.94745 76.03413 34.61825 -2.700902 -0 0 23.00706 -28.97619 14.29739 17.60982 3.940011 -16.87007 -0.9273682 -92.87383 22.90293 27.63574 0 0 -12.99161 0.4828132 8.723805 14.30205
17.0087 102.4048 2793.504 -0.09417834 -3.358915 -18.21449 0.5439097 20.43926 2.325292 -0 21.97497 -0 -2.946841 -8.937015 0.06738804 -0.7596206 -26.18995 -5.636642 -0 14.86228 -0 -3.873962 -7.019255 20.02574 -2.954429 -0.6143008 9.160753 -0.7243872 9.581234 -3.481302 0.9866757 21.58524 6.20642 3.456382 -19.74814 5.966273 3.442411 -22.07914 12.03562 76.07762 33.93468 -2.804257 -0 0 22.80118 -28.39973 13.52617 17.33273 3.669166 -16.67699 -1.398235 -92.70438 23.00998 27.12223 0 0 -12.43379 0.1463423 8.229469 14.25765
15.96418 102.5272 2800.963 0.6554159 -4.157038 -18.17963 -0.9764824 19.40776 2.996724 -0 31.04713 -0 -2.414018 -2.509113 -0.4018427 -3.064504 -23.13824 -6.977526 -0 18.07131 -0 -2.408257 -7.698768 20.06586 -3.449739 -0.6761687 8.860449 -0.5073375 9.813952 -3.663688 0.9890449 21.7678 6.22521 3.534947 -19.73014 5.930932 3.83051 -21.72211 12.12158 76.41086 33.42885 -3.419888 -0 0 22.05657 -27.64377 12.85944 16.93042 3.37852 -16.63227 -1.946526 -92.36995 23.30223 26.24136 0 0 -12.1817 -0.3024621 7.868483 14.40641
14.97539 103.3814 2808.282 1.108539 -4.965973 -17.6805 -1.73094 16.28483 3.427615 -0 41.32165 -0 -1.923092 3.589451 -1.326874 -4.809744 -19.17337 -7.606547 -0 20.69174 -0 -0.8001049 -8.467149 19.87096 -3.834559 -0.6594403 8.342861 -0.1769507 10.0157 -4.009721 0.9596041 21.9401 6.308506 3.613531 -19.75732 5.926449 4.29835 -21.12334 12.20504 77.04936 33.07621 -4.563937 -0 0 20.82501 -26.76569 12.37676 16.46399 3.09386 -16.7394 -2.528811 -91.84119 23.67523 25.00575 0 0 -12.27947 -0.8164333 7.65326 14.70842
14.08329 104.8166 2815.201 1.08132 -5.709338 -16.73591 -1.572979 10.99576 3.522393 -0 50.94642 -0 -1.430963 8.051517 -2.641189 -5.751931 -14.41701 -7.59215 -0 21.70248 -0 0.512171 -9.418061 19.41588 -4.046367 -0.5669203 7.631906 0.2611932 10.18797 -4.52211 0.9036338 22.05181 6.423484 3.660165 -19.82754 5.942697 4.787026 -20.31892 12.28512 78.01822 32.81756 -6.244851 -0 0 19.19305 -25.81191 12.13741 15.97333 2.853121 -17.00427 -3.10355 -91.10557 24.00357 23.44876 0 0 -12.76498 -1.314902 7.563427 15.08887
13.31827 106.5042 2821.571 0.5927124 -6.336234 -15.49658 -0.7557332 3.926959 3.389316 -0 57.402 -0 -0.9528063 10.03146 -4.131336 -5.924879 -9.074643 -7.256137 -0 20.79235 -0 1.176755 -10.63674 18.69305 -4.032561 -0.4123427 6.782314 0.7793644 10.34474 -5.184509 0.8331849 22.05675 6.540498 3.6545 -19.92774 5.974644 5.231963 -19.36051 12.3581 79.33218 32.58441 -8.443729 -0 0 17.26644 -24.83445 12.17657 15.4736 2.705963 -17.44323 -3.635133 -90.1645 24.15815 21.60793 0 0 -13.67683 -1.681428 7.547257 15.42999
12.67395 108.0052 2827.395 -0.105699 -6.746751 -14.19152 0.2067632 -4.048162 3.192374 -0 58.37803 -0 -0.5316761 9.376493 -5.536806 -5.600811 -3.502787 -6.975557 -0 18.39339 -0 1.080222 -12.17272 17.72969 -3.776151 -0.2263519 5.873603 1.327369 10.50287 -5.958186 0.7647132 21.92584 6.644142 3.596381 -20.03321 6.026713 5.572715 -18.31529 12.41255 80.96974 32.32728 -11.08609 -0 0 15.1654 -23.90187 12.4988 14.95803 2.70889 -18.08019 -4.097096 -89.03351 24.03987 19.51659 0 0 -15.05619 -1.78776 7.538389 15.58678
12.09036 108.8985 2832.815 -0.6319721 -6.792532 -13.01994 0.7924848 -11.77791 2.947958 -0 52.96437 -0 -0.1825923 6.681726 -6.692121 -5.179535 1.832646 -6.973907 -0 15.42496 -0 0.3711389 -14.04413 16.60855 -3.319022 -0.05736722 4.992422 1.842358 10.66711 -6.784157 0.7145446 21.66103 6.736093 3.503769 -20.11197 6.112608 5.761129 -17.2659 12.42683 82.85844 32.0341 -14.02566 -0 0 13.02478 -23.08925 13.06831 14.40765 2.911274 -18.9281 -4.474244 -87.74787 23.62146 17.21271 0 0 -16.93282 -1.543151 7.483168 15.43361
11.46961 108.9243 2838.058 -0.6798525 -6.400852 -12.07141 0.7141947 -18.24131 2.505537 -0 42.36172 -0 0.1095389 3.102084 -7.578633 -5.008383 6.542655 -7.221454 -0 12.84293 -0 -0.6513909 -16.21051 15.46087 -2.761794 0.03952245 4.211864 2.26635 10.82086 -7.591808 0.6935737 21.30118 6.826819 3.399641 -20.13329 6.248064 5.769279 -16.30189 12.3749 84.87767 31.72748 -17.05351 -0 0 10.99014 -22.45259 13.80529 13.80932 3.334885 -19.96274 -4.761296 -86.36766 22.9666 14.76087 0 0 -19.28825 -0.9382356 7.361133 14.91539
10.71503 108.076 2843.372 -0.2015493 -5.689089 -11.32797 0.0858165 -22.88594 1.766735 -0 29.50059 -0 0.3476347 -0.05698061 -8.262849 -5.201169 10.48972 -7.511917 -0 11.3218 -0 -1.717307 -18.47797 14.40997 -2.231041 0.0241851 3.579507 2.561947 10.93311 -8.311731 0.7040615 20.91137 6.923178 3.29912 -20.07674 6.439148 5.598089 -15.50037 12.23981 86.87325 31.44119 -19.92905 -0 0 9.203637 -22.01177 14.59854 13.17565 3.956986 -21.10779 -4.958461 -84.975 22.2035 12.26934 0 0 -22.00847 -0.05244262 7.183432 14.06984
9.756251 106.5996 2848.98 0.5535143 -4.909408 -10.70936 -0.5866012 -25.68373 0.9170513 -0 17.82272 -0 0.5031099 -1.822936 -8.813147 -5.576551 13.76232 -7.638864 -0 11.27644 -0 -2.724221 -20.40532 13.50863 -1.829399 -0.1069701 3.115961 2.718676 10.9791 -8.889202 0.7406459 20.55895 7.022043 3.207596 -19.93833 6.673336 5.283118 -14.90499 12.02673 88.67846 31.18864 -22.41998 -0 0 7.781602 -21.75726 15.33234 12.55373 4.704907 -22.24363 -5.068816 -83.66474 21.47027 9.889296 0 0 -24.85535 0.9684765 6.974034 13.02027
8.548092 104.9125 2855.059 1.163567 -4.278812 -10.13248 -0.6628689 -26.94222 0.3975607 -0 9.999922 -0 0.5404226 -1.903384 -9.247856 -5.779162 16.46316 -7.529196 -0 13.06601 -0 -3.742341 -21.33408 12.74495 -1.596985 -0.3122306 2.818833 2.749726 10.96045 -9.293997 0.794747 20.29144 7.112354 3.127534 -19.73147 6.919388 4.891811 -14.51711 11.7674 90.14045 30.94199 -24.34019 -0 0 6.793554 -21.67045 15.91528 12.01469 5.463775 -23.23498 -5.101161 -82.53511 20.87077 7.798589 0 0 -27.48264 1.94108 6.752136 11.95705
7.073469 103.472 2861.699 1.251449 -3.885589 -9.586831 0.2515367 -27.00827 0.6235892 -0 7.111502 -0 0.4605664 -0.7522214 -9.514126 -5.511532 18.48425 -7.263229 -0 17.08772 -0 -4.875249 -20.61326 12.14307 -1.506029 -0.5171303 2.671677 2.681453 10.91105 -9.520964 0.8593705 20.12822 7.180672 3.063613 -19.48081 7.137393 4.507667 -14.30707 11.51202 91.14953 30.63872 -25.57707 -0 0 6.256612 -21.73885 16.29868 11.62926 6.09965 -23.96317 -5.074912 -81.67812 20.46071 6.176939 0 0 -29.50653 2.679292 6.525405 11.10226
5.367969 102.6384 2868.841 0.6906246 -3.751731 -9.177195 2.047241 -26.00448 1.686699 -0 8.438612 -0 0.3213751 0.6610945 -9.514838 -4.736549 19.42821 -6.992241 -0 23.62483 -0 -6.099334 -17.98889 11.86244 -1.492521 -0.646731 2.658629 2.538371 10.8827 -9.578796 0.9317371 20.0676 7.215536 3.020469 -19.20966 7.295215 4.20227 -14.24158 11.3101 91.6607 30.218 -26.09832 -0 0 6.154214 -21.95804 16.47792 11.44234 6.498405 -24.35085 -5.019064 -81.16563 20.25743 5.175528 0 0 -30.61561 3.045219 6.289978 10.64423
3.532764 102.582 2876.254 -0.3066312 -3.950126 -9.08001 4.133775 -23.76336 3.256842 -0 11.95535 -0 0.2098005 1.300008 -9.200144 -3.725642 18.75461 -6.812754 -0 32.50627 -0 -7.257988 -13.96915 12.1259 -1.503075 -0.6604668 2.776383 2.330584 10.91776 -9.474609 1.013288 20.09974 7.209962 2.99664 -18.92713 7.382992 4.0083 -14.30825 11.1892 91.69439 29.66152 -25.93596 -0 0 6.467688 -22.32686 16.48095 11.46087 6.606191 -24.37136 -4.96182 -81.03364 20.25608 4.885026 0 0 -30.67054 2.99596 6.033323 10.66803
1.700324 103.2697 2883.607 -1.302256 -4.608935 -9.438028 5.771184 -20.051 4.794004 -0 15.40824 -0 0.1928803 0.5621606 -8.661687 -2.885511 16.08797 -6.700743 -0 42.75444 -0 -8.182336 -9.801079 12.99815 -1.521299 -0.5656912 3.032787 2.051875 11.02714 -9.207406 1.108465 20.21396 7.163616 2.982274 -18.62317 7.417581 3.91214 -14.51797 11.14512 91.31565 29.00232 -25.16101 -0 0 7.194032 -22.84484 16.35701 11.65871 6.446188 -24.04301 -4.917827 -81.27561 20.43927 5.31432 0 0 -29.73436 2.588917 5.741817 11.13501
-0.02266061 104.5049 2890.618 -1.905629 -5.743369 -10.25915 6.513904 -14.94061 5.924212 -0 17.38523 -0 0.3008872 -1.435782 -8.089168 -2.454743 11.44333 -6.56109 -0 52.46344 -0 -8.74443 -6.834728 14.2809 -1.558112 -0.4020374 3.434615 1.688922 11.18778 -8.773402 1.223353 20.39715 7.084651 2.963503 -18.27639 7.435309 3.871114 -14.88678 11.14932 90.6038 28.29586 -23.86189 -0 0 8.339371 -23.51208 16.17027 11.9911 6.098976 -23.41226 -4.883397 -81.85401 20.77954 6.398429 0 0 -28.01388 1.937756 5.411077 11.92835
-1.585957 105.9684 2897.172 -1.996204 -7.085641 -11.38638 6.387814 -9.008733 6.576654 -0 17.65233 -0 0.5425918 -4.042709 -7.55475 -2.328972 5.210334 -6.316279 -0 59.18802 -0 -8.873851 -5.670035 15.65944 -1.625037 -0.212936 3.978104 1.233968 11.35608 -8.173545 1.363712 20.62967 6.989331 2.929523 -17.87046 7.478085 3.841003 -15.41808 11.16717 89.62381 27.58569 -22.12483 -0 0 9.904399 -24.32571 15.99135 12.40978 5.661492 -22.53196 -4.841828 -82.72661 21.2397 8.040236 0 0 -25.75448 1.154129 5.052706 12.92173
-2.989307 107.2788 2903.32 -1.727766 -8.167436 -12.58495 5.729308 -3.12028 6.808063 -0 16.74853 -0 0.8947412 -6.636156 -6.895622 -2.170403 -1.930191 -5.934692 -0 60.97429 -0 -8.647436 -5.89279 16.9123 -1.717546 -0.02718717 4.649237 0.6936691 11.48247 -7.416446 1.532105 20.88429 6.898547 2.876704 -17.40888 7.579956 3.794367 -16.09843 11.17407 88.40822 26.8925 -20.01598 -0 0 11.87602 -25.27183 15.88346 12.87402 5.214052 -21.44591 -4.772035 -83.86817 21.77036 10.15616 0 0 -23.16371 0.3163317 4.69656 14.01587
-4.257148 108.1106 2909.195 -1.377416 -8.639903 -13.68118 4.958065 2.039421 6.699924 -0 15.44748 -0 1.301688 -9.019392 -5.943305 -1.672894 -9.069074 -5.391728 -0 57.47692 -0 -8.280146 -6.624964 17.96245 -1.814237 0.1417153 5.425825 0.09364871 11.51906 -6.522317 1.725562 21.12771 6.832053 2.807049 -16.91894 7.758805 3.721039 -16.89951 11.1618 86.96446 26.22052 -17.58619 -0 0 14.21425 -26.31542 15.88985 13.35284 4.811904 -20.19359 -4.655189 -85.26407 22.30288 12.67792 0 0 -20.41239 -0.5258285 4.391357 15.1295
